<?xml version="1.0" encoding="utf-8"?>
<!-- Generator: Adobe Illustrator 19.0.0, SVG Export Plug-In . SVG Version: 6.00 Build 0)  -->
<svg version="1.1" id="Layer_1" xmlns="http://www.w3.org/2000/svg" xmlns:xlink="http://www.w3.org/1999/xlink" x="0px" y="0px"
	 viewBox="0 0 200 200" style="enable-background:new 0 0 200 200;" xml:space="preserve">
<style type="text/css">
	.st0{fill:#222222;}
</style>
<g id="XMLID_5_">
	<g id="XMLID_6_">
		<path id="XMLID_7_" class="st0" d="M0.1,85.9c-0.1,3.4,1.2,4.7,2.1,5.8c0.3,0.3,0.6,0.6,0.8,1c0.5,0.8,0.8,1.8,1,2.9
			c4.1,24.8,5,28.1,15.4,33.6c5,2.6,15.2,4.4,25.4,4.4c8,0,19.5-1,29-6c13.9-7.3,19.1-32.4,19.4-33.6c0-0.1,0.4-3.1,6.8-3.1h0l0.4,0
			c6,0,6.5,3,6.5,3.3c0.2,1.1,5.4,26.2,19.3,33.5c9.6,5,21.1,6,29,6c10.2,0,20.4-1.8,25.4-4.4c10.4-5.5,11.3-8.8,15.4-33.6
			c0.2-1.1,0.5-2.1,1-2.9c0.2-0.4,0.5-0.6,0.8-1c1-1.1,2.2-2.4,2.1-5.8c0-0.6,0-1.6,0-2.7c0-1.7,0.1-3.6,0-4.6c-0.3-5-4.7-7-7-7.4
			c-14.3-2.9-31.4-3.8-49.4-2.5l-0.9,0.1c-11,0.8-17.1,1.2-24.3,4.4c-1.7,0.8-3.4,1.6-4.9,2.4c-2.7,1.4-6.6,2.9-8.8,3.4
			c-0.8,0.2-1.7,0.4-2.5,0.5c-1.1,0.2-3.2,0.2-4.3,0c-0.8-0.2-1.6-0.3-2.5-0.5c-2.1-0.5-6-2-8.8-3.4c-1.5-0.8-3.3-1.6-4.9-2.4
			c-7.2-3.2-13.3-3.7-24.3-4.4l-0.9-0.1C38.3,67.4,21.2,68.3,7,71.2c-2.3,0.4-6.7,2.4-7,7.4c-0.1,1,0,2.9,0,4.6
			C0.1,84.3,0.1,85.3,0.1,85.9z M115.8,85c0.7-1.7,5.1-7.5,32.4-9.1c4.8-0.3,8.8-0.4,12.4-0.4c16.1,0,21.2,2.9,24.2,7.6
			c1.8,2.8,3.1,8.6,3.1,12.3c0,8.1-1.6,22.4-12.8,27.9c-5.1,2.5-12.8,4-20.6,4c-14.9,0-26.8-5.1-31.8-13.5
			C112.1,95.9,115.7,85.3,115.8,85z M15.2,83.1c3-4.7,8.2-7.6,24.2-7.6c3.6,0,7.6,0.1,12.4,0.4c27.3,1.6,31.7,7.4,32.4,9.3
			c0,0.1,3.6,10.7-7,28.5c-5,8.5-16.9,13.5-31.8,13.5c-7.8,0-15.4-1.5-20.6-4c-11.2-5.4-12.8-19.8-12.8-27.9
			C12.1,91.7,13.4,85.9,15.2,83.1z"/>
	</g>
</g>
</svg>
